<svg class="group-people-icon-65" xmlns="http://www.w3.org/2000/svg" xmlns:xlink="http://www.w3.org/1999/xlink" width="65" height="65" x="0px" y="0px"
	 viewBox="0 0 75 65" style="enable-background:new 0 0 75 65;" xml:space="preserve">
<style type="text/css">
	.st0{fill:none;stroke:#2E1A47;stroke-width:2;stroke-linecap:round;}
	.st1{fill:#FFFFFF;stroke:#2E1A47;stroke-width:2;stroke-linecap:round;}
</style>
<g id="icon-team" transform="translate(-359.011 -640.466)">
	<circle id="Ellipse_577" class="st0" cx="395.2" cy="661.9" r="7.5"/>
	<circle id="Ellipse_578" class="st0" cx="414.4" cy="655.9" r="6"/>
	<ellipse id="Ellipse_592" class="st0" cx="376.1" cy="655.9" rx="6" ry="6"/>
	<path id="Path_12004" class="st0" d="M409.4,694.6c0.9-0.1,1.6-1,1.5-1.9c0,0,0,0,0-0.1c-0.8-11.4-7.5-20.2-15.6-20.2
		c-8.1,0-14.8,8.9-15.6,20.2c-0.1,0.9,0.5,1.8,1.4,2c0,0,0,0,0.1,0L409.4,694.6z"/>
	<path id="Path_12005" class="st1" d="M402.4,683.3"/>
	<path id="Path_12006" class="st1" d="M405.9,672.8"/>
	<path id="Path_12007" class="st0" d="M412.5,683.5h12.9c1-0.1,1.6-1,1.5-2c0,0,0-0.1,0-0.1c-0.9-9.6-6-17-12.2-17
		c-3.5,0-6.6,2.3-8.8,6"/>
	<path id="Path_12031" class="st0" d="M377.9,683.5H365c-1-0.1-1.6-1-1.5-2c0,0,0-0.1,0-0.1c0.9-9.6,6-17,12.2-17
		c3.5,0,6.6,2.3,8.8,6"/>
	<path id="Path_12008" class="st1" d="M412.5,683.3"/>
	<path id="Path_12009" class="st1" d="M402.4,683.3"/>
</g>
</svg>
