<svg xmlns="http://www.w3.org/2000/svg" width="47" height="47" viewBox="0 0 47 47">
  <g id="Group_19835" data-name="Group 19835" transform="translate(-306.852 -584.038)">
    <g id="Group_19509" data-name="Group 19509" transform="translate(79.039 -154)">
      <g id="Group_19255" data-name="Group 19255" transform="translate(228.039 739.039)">
        <path id="Path_12695" data-name="Path 12695" d="M47.617,55.409a1.711,1.711,0,0,1-.853-.228L34.183,47.956,21.6,55.182A1.713,1.713,0,0,1,19.06,53.4l2.547-14.63-9.979-9.85a1.713,1.713,0,0,1,.957-2.915L25.294,24.16l7.4-12.891a1.713,1.713,0,0,1,2.972,0l5.169,9-2.972,1.706-3.683-6.413L27.851,26.589a1.713,1.713,0,0,1-1.239.842L16.487,28.9l8.166,8.06a1.713,1.713,0,0,1,.484,1.513L23.063,50.391l10.267-5.9a1.713,1.713,0,0,1,1.707,0l10.267,5.9L43.228,38.476a1.713,1.713,0,0,1,.484-1.513l8.166-8.06L41.754,27.431l.493-3.391L55.78,26.007a1.713,1.713,0,0,1,.957,2.915l-9.979,9.85L49.305,53.4a1.713,1.713,0,0,1-1.688,2.007Z" transform="translate(-11.119 -10.409)" fill="#2e1a47"/>
      </g>
    </g>
    <rect id="Rectangle_5935" data-name="Rectangle 5935" width="47" height="47" transform="translate(306.852 584.038)" fill="none"/>
  </g>
</svg>
