<svg xmlns="http://www.w3.org/2000/svg" width="194.777" height="176.558" viewBox="0 0 194.777 176.558">
  <g id="Group_20260" data-name="Group 20260" transform="translate(-1321.639 -4538.798)" style="isolation: isolate">
    <path id="Path_14066" data-name="Path 14066" d="M-3897.009-5641.142l-33.187,33.187-78.841-78.841s-33.782-32.984,0-72.953,78.841,0,78.841,0,37.448-39.08,76.581,0,0,74.23,0,74.23l-20.995,20.994" transform="translate(5349.138 10319.811)" fill="#f7f7f7"/>
    <path id="Path_14066_-_Outline" data-name="Path 14066 - Outline" d="M-3930.2-5604.455a3.5,3.5,0,0,1-2.475-1.025l-78.841-78.841c-.331-.323-35.673-35.716-.2-77.687,9.787-11.579,21.446-17.932,34.654-18.881,21.227-1.52,40.078,11.344,46.7,16.486,5.515-4.882,20.128-16,38.969-16.211,14.323-.156,27.872,6.03,40.248,18.389,12.586,12.569,18.778,26.125,18.4,40.289-.6,22.654-17.805,38.364-18.537,39.021l-20.859,20.865a3.5,3.5,0,0,1-4.95,0,3.5,3.5,0,0,1,0-4.95l20.995-20.994c.289-.267,15.867-14.57,16.355-34.188.3-12.146-5.2-23.952-16.354-35.09-10.978-10.962-22.792-16.475-35.166-16.343-20.67.2-36.263,16.131-36.418,16.292a3.507,3.507,0,0,1-4.844.2c-.209-.185-21.158-18.434-44.076-16.776-11.241.818-21.258,6.341-29.772,16.415-31.21,36.926-1.5,66.935-.223,68.194l76.391,76.391,30.712-30.712a3.5,3.5,0,0,1,4.95,0,3.5,3.5,0,0,1,0,4.95l-33.187,33.187A3.5,3.5,0,0,1-3930.2-5604.455Z" transform="translate(5349.138 10319.811)" fill="#2e1a47"/>
    <g id="Group_20259" data-name="Group 20259" transform="translate(1385.925 4581.049)">
      <path id="Path_14067" data-name="Path 14067" d="M-3250.215-6462.93h-66.15a3,3,0,0,1-3-3,3,3,0,0,1,3-3h66.15a3,3,0,0,1,3,3A3,3,0,0,1-3250.215-6462.93Z" transform="translate(3316.365 6537.808)" fill="#2e1a47"/>
      <path id="Line_2869" data-name="Line 2869" d="M0,38.264a3,3,0,0,1-3-3V0A3,3,0,0,1,0-3,3,3,0,0,1,3,0V35.264A3,3,0,0,1,0,38.264Z" transform="translate(4.747 36.22)" fill="#2e1a47"/>
      <path id="Line_2870" data-name="Line 2870" d="M0,38.264a3,3,0,0,1-3-3V0A3,3,0,0,1,0-3,3,3,0,0,1,3,0V35.264A3,3,0,0,1,0,38.264Z" transform="translate(60.754 36.22)" fill="#2e1a47"/>
      <path id="Path_14068" data-name="Path 14068" d="M-3265.427-6480.34v-24.6h-16.163v24.6" transform="translate(3305.635 6549.844)" fill="#afabc9"/>
      <path id="Path_14068_-_Outline" data-name="Path 14068 - Outline" d="M-3265.427-6477.34a3,3,0,0,1-3-3v-21.6h-10.163v21.6a3,3,0,0,1-3,3,3,3,0,0,1-3-3v-24.6a3,3,0,0,1,3-3h16.163a3,3,0,0,1,3,3v24.6A3,3,0,0,1-3265.427-6477.34Z" transform="translate(3305.635 6549.844)" fill="#2e1a47"/>
      <path id="Union_353" data-name="Union 353" d="M51.76,22.163c-1.881,2.637-2.681,4.445-6.116,4.445s-5.476-1.986-6.74-4.445c-1.54,1.436-2.5,4.12-6.2,4.417v.027q-.177,0-.346-.007t-.346.007v-.027c-3.7-.3-4.661-2.982-6.2-4.417-1.265,2.458-3.3,4.445-6.74,4.445s-4.235-1.808-6.116-4.445c-2.462,3.774-3.7,4.445-7.7,4.445S0,22.163,0,22.163v-9L4.03,0H60.685l4.029,13.166v9s-1.258,4.445-5.254,4.445S54.222,25.937,51.76,22.163Z" transform="translate(0.744 0)" fill="#e3dfef"/>
      <path id="Union_353_-_Outline" data-name="Union 353 - Outline" d="M59.46,29.608c-3.525,0-5.659-.609-7.639-2.532a7.874,7.874,0,0,1-6.177,2.532,9.84,9.84,0,0,1-6.923-2.681,8.9,8.9,0,0,1-5.318,2.6,3.315,3.315,0,0,1-1.625-.043l-.007.09a8.939,8.939,0,0,1-5.778-2.644,9.841,9.841,0,0,1-6.923,2.681,7.874,7.874,0,0,1-6.177-2.532C10.913,29,8.779,29.608,5.254,29.608c-4.945,0-7.444-4.166-8.141-6.627L-3,13.166,1.161-.878A3,3,0,0,1,4.03-3H60.685A3,3,0,0,1,63.554-.878l4.029,13.166.131,9.875C66.9,25.442,64.406,29.608,59.46,29.608Zm-7.7-10.445h.062a3,3,0,0,1,2.45,1.36c2.012,3.084,2.373,3.084,5.187,3.084,1.653,0,2.361-2.239,2.367-2.261l-.113-8.18L58.489,3H6.249L2.869,14.044,3,22.016c.071-.156.783,1.592,2.257,1.592,2.814,0,3.176,0,5.188-3.084a3,3,0,0,1,4.955-.1l.64.916c1.414,2.046,1.616,2.27,3.033,2.27,1.3,0,2.795-.335,4.072-2.817a3,3,0,0,1,4.714-.822,14.642,14.642,0,0,1,1.413,1.6c1.052,1.322,1.576,1.911,2.983,2.024l.105.01.1-.01c1.407-.113,1.931-.7,2.983-2.024a14.638,14.638,0,0,1,1.414-1.6,3,3,0,0,1,4.714.823c1.276,2.482,2.774,2.816,4.072,2.816,1.417,0,1.62-.225,3.033-2.27l.64-.916A3,3,0,0,1,51.76,19.163Z" transform="translate(0.744 0)" fill="#2e1a47"/>
    </g>
  </g>
</svg>
