<svg xmlns="http://www.w3.org/2000/svg" width="56.889" height="52.8" viewBox="0 0 56.889 52.8">
  <g id="Group_20458" data-name="Group 20458" transform="translate(-4.024 -6.1)">
    <path id="Path_12345" data-name="Path 12345" d="M46.3,25.2a7.061,7.061,0,1,1-5.032,2.068A7.062,7.062,0,0,1,46.3,25.2Zm0,12.2a5.061,5.061,0,1,0-3.618-1.482A5.075,5.075,0,0,0,46.3,37.4Z" fill="#2e1a47"/>
    <path id="Path_12346" data-name="Path 12346" d="M15.645,40.156l-7.9-9.1a15.32,15.32,0,0,1-3.562-7.825,15.58,15.58,0,0,1,.993-8.065A14.161,14.161,0,0,1,17.16,6.209,8.6,8.6,0,0,1,18.8,6.1a17.388,17.388,0,0,1,8.463,2.189,16.928,16.928,0,0,1,5.248,4.562A17.223,17.223,0,0,1,46.2,6.1a8.365,8.365,0,0,1,.849.055c.232.023.45.045.651.045h.043l.043,0a13.874,13.874,0,0,1,10.465,6.117,15.769,15.769,0,0,1,2.006,13.266l-1.916-.575A13.75,13.75,0,0,0,56.6,13.444,11.906,11.906,0,0,0,47.653,8.2c-.282,0-.547-.029-.8-.055-.232-.023-.45-.045-.651-.045a15.238,15.238,0,0,0-7.448,1.934,15.5,15.5,0,0,0-5.412,5.107l-.855,1.327-.834-1.341a14.846,14.846,0,0,0-5.364-5.093A15.384,15.384,0,0,0,18.8,8.1a6.769,6.769,0,0,0-1.3.081l-.054.011-.054,0a12.046,12.046,0,0,0-6.452,2.494,12.651,12.651,0,0,0-3.911,5.226,13.578,13.578,0,0,0-.866,7.028,13.323,13.323,0,0,0,3.1,6.8l7.9,9.1Z" fill="#2e1a47"/>
    <path id="Path_12347" data-name="Path 12347" d="M32.4,58.9a1,1,0,0,1-.755-.344l-16-18.4,1.509-1.312L31.6,55.455A14.7,14.7,0,0,1,60.8,57.9h-2a12.7,12.7,0,1,0-25.4,0,1,1,0,0,1-1,1Z" fill="#2e1a47"/>
  </g>
</svg>
