<svg xmlns="http://www.w3.org/2000/svg" width="47" height="47" viewBox="0 0 47 47">
  <g id="Group_19833" data-name="Group 19833" transform="translate(-298.9 -450.971)">
    <g id="Group_19262" data-name="Group 19262" transform="translate(70.457 -120.161)">
      <g id="Group_19257" data-name="Group 19257" transform="translate(229.444 573.971)">
        <g id="Group_19251" data-name="Group 19251" transform="translate(0 0)">
          <path id="Path_12912" data-name="Path 12912" d="M15.733,22.972q-6.939,0-10.544-4.912T1.584,3.649V1.8q0-9.5,3.6-14.411T15.733-17.52q6.939,0,10.544,4.912T29.881,1.8V3.649q0,9.5-3.6,14.411T15.733,22.972Zm0-2.66q11.113,0,11.113-16.664V1.8q0-16.664-11.113-16.664T4.62,1.8V3.649Q4.62,20.313,15.733,20.313Z" transform="translate(14.257 17.963)" fill="#2e1a47"/>
          <path id="Path_12912_-_Outline" data-name="Path 12912 - Outline" d="M15.926,23.609c-4.753,0-8.421-1.714-10.9-5.093C2.576,15.178,1.334,10.242,1.334,3.842V2c0-6.4,1.242-11.336,3.691-14.673,2.48-3.38,6.148-5.093,10.9-5.093s8.421,1.714,10.9,5.093C29.276-9.339,30.518-4.4,30.518,2V3.842c0,6.4-1.242,11.336-3.691,14.673C24.347,21.9,20.679,23.609,15.926,23.609Zm0-40.492A13.942,13.942,0,0,0,10.008-15.7,11.058,11.058,0,0,0,5.74-12.152C3.4-8.97,2.221-4.21,2.221,2V3.842c0,6.207,1.184,10.967,3.519,14.149a11.058,11.058,0,0,0,4.268,3.545,13.942,13.942,0,0,0,5.918,1.187,13.942,13.942,0,0,0,5.918-1.187,11.058,11.058,0,0,0,4.268-3.545c2.335-3.182,3.519-7.942,3.519-14.149V2c0-6.207-1.184-10.967-3.519-14.149A11.058,11.058,0,0,0,21.844-15.7,13.942,13.942,0,0,0,15.926-16.883Zm0,37.833C8.258,20.949,4.37,15.194,4.37,3.842V2C4.37-9.355,8.258-15.11,15.926-15.11S27.482-9.355,27.482,2V3.842C27.482,15.194,23.594,20.949,15.926,20.949Zm0-35.173c-3.579,0-6.185,1.3-7.966,3.969C6.166-7.565,5.256-3.443,5.256,2V3.842c0,5.44.91,9.562,2.7,12.252,1.781,2.67,4.387,3.969,7.966,3.969s6.185-1.3,7.966-3.969c1.794-2.69,2.7-6.812,2.7-12.252V2c0-5.44-.91-9.562-2.7-12.252C22.111-12.925,19.505-14.224,15.926-14.224Z" transform="translate(14.064 17.77)" fill="#2e1a47"/>
          <path id="Path_12913" data-name="Path 12913" d="M1.272-3.612l1.4-2.253A6.818,6.818,0,0,0,4.761-4.749a7.291,7.291,0,0,0,2.4.437,3.217,3.217,0,0,0,1.99-.536,1.757,1.757,0,0,0,.7-1.476,1.547,1.547,0,0,0-.569-1.323A5.622,5.622,0,0,0,7.156-8.38l-.962-.175A6.818,6.818,0,0,1,2.781-10.01a3.567,3.567,0,0,1-1.094-2.745,4.041,4.041,0,0,1,1.2-2.975,5.7,5.7,0,0,1,3.215-1.531v-2.515H8.731v2.494a8.272,8.272,0,0,1,2.319.634,6.82,6.82,0,0,1,1.881,1.2L11.377-13.28a5.974,5.974,0,0,0-1.815-1.137,5.5,5.5,0,0,0-2.078-.416,3.346,3.346,0,0,0-1.936.481,1.579,1.579,0,0,0-.689,1.378,1.412,1.412,0,0,0,.569,1.181,4.549,4.549,0,0,0,1.9.678l.962.2a7.328,7.328,0,0,1,3.62,1.487A3.656,3.656,0,0,1,13.04-6.587,4.415,4.415,0,0,1,11.9-3.459,5.433,5.433,0,0,1,8.731-1.884V.653H6.106V-1.818a11.462,11.462,0,0,1-2.6-.623A8.7,8.7,0,0,1,1.272-3.612Z" transform="translate(-1.272 20.219)" fill="#2e1a47"/>
        </g>
      </g>
    </g>
    <rect id="Rectangle_5933" data-name="Rectangle 5933" width="47" height="47" transform="translate(298.9 450.971)" fill="none"/>
  </g>
</svg>
