<svg xmlns="http://www.w3.org/2000/svg" width="59" height="57.85" viewBox="0 0 59 57.85">
  <g id="Group_20457" data-name="Group 20457" transform="translate(-3 -4.075)">
    <path id="Path_12412" data-name="Path 12412" d="M26.426,61.925l-8.008-13.87a4.235,4.235,0,0,0-1.548-1.548L3,38.5l13.871-8.008a4.238,4.238,0,0,0,1.547-1.548l8.009-13.87,5.6,9.7a1,1,0,1,1-1.732,1l-3.865-6.7L20.15,29.943a6.242,6.242,0,0,1-2.279,2.28L7,38.5l10.87,6.276a6.238,6.238,0,0,1,2.28,2.28l6.276,10.87L32.7,47.055a6.238,6.238,0,0,1,2.28-2.28L45.852,38.5,33.769,31.522a1,1,0,0,1,1-1.732L49.852,38.5l-13.87,8.008a4.235,4.235,0,0,0-1.548,1.548Z" fill="#2e1a47"/>
    <path id="Path_12413" data-name="Path 12413" d="M47.851,31.369l-4.914-8.513a1.966,1.966,0,0,0-.719-.719l-8.513-4.915,8.513-4.915a1.971,1.971,0,0,0,.721-.72l4.048-7.012a1,1,0,1,1,1.732,1L44.67,12.588a3.974,3.974,0,0,1-1.453,1.451L37.7,17.222,43.218,20.4a3.968,3.968,0,0,1,1.451,1.452l3.182,5.512,3.184-5.513a3.967,3.967,0,0,1,1.451-1.451L58,17.222l-6.2-3.58a1,1,0,1,1,1-1.732L62,17.222l-8.514,4.915a1.965,1.965,0,0,0-.719.718Z" fill="#2e1a47"/>
  </g>
</svg>
